<svg xmlns="http://www.w3.org/2000/svg" viewBox="0 0 630 630" width="630" height="630" xmlns:c2pa="http://c2pa.org/manifest"><metadata><c2pa:manifest>AAAWgmp1bWIAAAAeanVtZGMycGEAEQAQgAAAqgA4m3EDYzJwYQAAABZcanVtYgAAAEdqdW1kYzJtYQARABCAAACqADibcQN1cm46YzJwYTo1ZGRjNjkwYS02NzAxLTQ5N2ItYTUxNS0xMDJmOGVmYzg4YTcAAAADl2p1bWIAAAApanVtZGMyYXMAEQAQgAAAqgA4m3EDYzJwYS5hc3NlcnRpb25zAAAAALxqdW1iAAAARGp1bWRjYm9yABEAEIAAAKoAOJtxE2MycGEuaW5ncmVkaWVudC52MwAAAAAYYzJzaIkCv9qZOA8FtSKgZjwfqt8AAABwY2JvcqNpZGM6Zm9ybWF0bWltYWdlL3N2Zyt4bWxqaW5zdGFuY2VJRHgseG1wOmlpZDozY2UxMjY5YS0xOTRjLTRkY2ItYTNkZC05ZmZiOTcyOWFmYWZscmVsYXRpb25zaGlwaHBhcmVudE9mAAAB4mp1bWIAAABBanVtZGNib3IAEQAQgAAAqgA4m3ETYzJwYS5hY3Rpb25zLnYyAAAAABhjMnNoNvBM4ui4sDik78nJ7kWRTgAAAZljYm9yomdhY3Rpb25zgqJmYWN0aW9ua2MycGEub3BlbmVkanBhcmFtZXRlcnOha2luZ3JlZGllbnRzgaJjdXJseC1zZWxmI2p1bWJmPWMycGEuYXNzZXJ0aW9ucy9jMnBhLmluZ3JlZGllbnQudjNkaGFzaFgg5vvHKajXOFRJvobQpdF3RXqTijdezq2vPf8cuG9vTL6kZmFjdGlvbngdY29tLmFudGhyb3BpYy5jbGF1ZGUucHJvdmlkZWRqcGFyYW1ldGVyc6F4H2NvbS5hbnRocm9waWMub3JpZ2luLWNvbmZpZGVuY2VndW5rbm93bmtkZXNjcmlwdGlvbnhmQ2xhdWRlIHByb3ZpZGVkIHRoaXMgZmlsZSBhdCB0aGUgcmVxdWVzdCBvZiBhIHVzZXIgYW5kIG1heSBoYXZlIGNyZWF0ZWQgb3IgbW9kaWZpZWQgdGhlIGZpbGUgY29udGVudHMubXNvZnR3YXJlQWdlbnShZG5hbWVmQ2xhdWRlcmFsbEFjdGlvbnNJbmNsdWRlZPUAAADIanVtYgAAAEBqdW1kY2JvcgARABCAAACqADibcRNjMnBhLmhhc2guZGF0YQAAAAAYYzJzaEb8j68tQv0KNsZ935NHo9gAAACAY2JvcqVjYWxnZnNoYTI1NmNwYWRNAAAAAAAAAAAAAAAAAGRoYXNoWCClCymlvqMf8VisqsfHiNCVdlOIXDvP1nW2VadYOh5dnWRuYW1lbmp1bWJmIG1hbmlmZXN0amV4Y2x1c2lvbnOBomVzdGFydBiWZmxlbmd0aBkeBAAAAj5qdW1iAAAAJ2p1bWRjMmNsABEAEIAAAKoAOJtxA2MycGEuY2xhaW0udjIAAAACD2Nib3KlY2FsZ2ZzaGEyNTZpc2lnbmF0dXJleE1zZWxmI2p1bWJmPS9jMnBhL3VybjpjMnBhOjVkZGM2OTBhLTY3MDEtNDk3Yi1hNTE1LTEwMmY4ZWZjODhhNy9jMnBhLnNpZ25hdHVyZWppbnN0YW5jZUlEeCx4bXA6aWlkOmM4OThiZmNkLWNlZTItNGVjMS05YTdkLTY3NzY5N2QyZDFlZXJjcmVhdGVkX2Fzc2VydGlvbnODomN1cmx4LXNlbGYjanVtYmY9YzJwYS5hc3NlcnRpb25zL2MycGEuaW5ncmVkaWVudC52M2RoYXNoWCDm+8cpqNc4VEm+htCl0XdFepOKN17Ora89/xy4b29MvqJjdXJseCpzZWxmI2p1bWJmPWMycGEuYXNzZXJ0aW9ucy9jMnBhLmFjdGlvbnMudjJkaGFzaFggtwsTTvrS32jcbbemlzT+1NfLlgRtk7ZR5ht0xu2GHs2iY3VybHgpc2VsZiNqdW1iZj1jMnBhLmFzc2VydGlvbnMvYzJwYS5oYXNoLmRhdGFkaGFzaFggWtXV0NpxfZXXWOC9s3eMJQPhS6J0w038E2148Kdx9Dp0Y2xhaW1fZ2VuZXJhdG9yX2luZm+jZG5hbWVvQW50aHJvcGljIEZpbGVzZ3ZlcnNpb25lMS4wLjBrc3BlY1ZlcnNpb25lMi40LjAAABA4anVtYgAAAChqdW1kYzJjcwARABCAAACqADibcQNjMnBhLnNpZ25hdHVyZQAAABAIY2JvctKEWQISogEmGCFZAgowggIGMIIBjaADAgECAhRA5aAK7sI50L64g/oGQgU9Z1UTADAKBggqhkjOPQQDAzBJMRcwFQYDVQQKEw5BbnRocm9waWMsIFBCQzEuMCwGA1UEAxMlQW50aHJvcGljIENvbnRlbnQgQ3JlZGVudGlhbHMgUm9vdCBDQTAeFw0yNjA4MDcxODQzNTZaFw0yODA4MDYxOTQzNTZaMEQxFzAVBgNVBAoTDkFudGhyb3BpYywgUEJDMSkwJwYDVQQDEyBBbnRocm9waWMgQ2xhdWRlIENvbnRlbnQgU2lnbmluZzBZMBMGByqGSM49AgEGCCqGSM49AwEHA0IABJh6CmvLUBgFFNU0vUKlOVtE6djd17L5SuwX0LemFisBM3dkd/3cyjxFA3Qo5S46fX0/ihY0VZ7mfb9KF703t5OjWDBWMA4GA1UdDwEB/wQEAwIHgDAVBgNVHSUEDjAMBgorBgEEAYPoXgIBMAwGA1UdEwEB/wQCMAAwHwYDVR0jBBgwFoAUzlHiBIFOZFsj+OPEz5o+nMHXXMIwCgYIKoZIzj0EAwMDZwAwZAIwMXMdFJ4BetLLVY7ORuE9noqbbAZOZn/aArXyTwFAZfKrPzxF2vPoJNf1+UCdg1XGAjBwX1zd9WGqYkqmL5SFqw1QySjr1zJfpJM9+1rdDwSPLMOPOjKuiXjoU/pUUeG9RwmhY3BhZFkNngAAAAAAAAAAAAAAAAAAAAAAAAAAAAAAAAAAAAAAAAAAAAAAAAAAAAAAAAAAAAAAAAAAAAAAAAAAAAAAAAAAAAAAAAAAAAAAAAAAAAAAAAAAAAAAAAAAAAAAAAAAAAAAAAAAAAAAAAAAAAAAAAAAAAAAAAAAAAAAAAAAAAAAAAAAAAAAAAAAAAAAAAAAAAAAAAAAAAAAAAAAAAAAAAAAAAAAAAAAAAAAAAAAAAAAAAAAAAAAAAAAAAAAAAAAAAAAAAAAAAAAAAAAAAAAAAAAAAAAAAAAAAAAAAAAAAAAAAAAAAAAAAAAAAAAAAAAAAAAAAAAAAAAAAAAAAAAAAAAAAAAAAAAAAAAAAAAAAAAAAAAAAAAAAAAAAAAAAAAAAAAAAAAAAAAAAAAAAAAAAAAAAAAAAAAAAAAAAAAAAAAAAAAAAAAAAAAAAAAAAAAAAAAAAAAAAAAAAAAAAAAAAAAAAAAAAAAAAAAAAAAAAAAAAAAAAAAAAAAAAAAAAAAAAAAAAAAAAAAAAAAAAAAAAAAAAAAAAAAAAAAAAAAAAAAAAAAAAAAAAAAAAAAAAAAAAAAAAAAAAAAAAAAAAAAAAAAAAAAAAAAAAAAAAAAAAAAAAAAAAAAAAAAAAAAAAAAAAAAAAAAAAAAAAAAAAAAAAAAAAAAAAAAAAAAAAAAAAAAAAAAAAAAAAAAAAAAAAAAAAAAAAAAAAAAAAAAAAAAAAAAAAAAAAAAAAAAAAAAAAAAAAAAAAAAAAAAAAAAAAAAAAAAAAAAAAAAAAAAAAAAAAAAAAAAAAAAAAAAAAAAAAAAAAAAAAAAAAAAAAAAAAAAAAAAAAAAAAAAAAAAAAAAAAAAAAAAAAAAAAAAAAAAAAAAAAAAAAAAAAAAAAAAAAAAAAAAAAAAAAAAAAAAAAAAAAAAAAAAAAAAAAAAAAAAAAAAAAAAAAAAAAAAAAAAAAAAAAAAAAAAAAAAAAAAAAAAAAAAAAAAAAAAAAAAAAAAAAAAAAAAAAAAAAAAAAAAAAAAAAAAAAAAAAAAAAAAAAAAAAAAAAAAAAAAAAAAAAAAAAAAAAAAAAAAAAAAAAAAAAAAAAAAAAAAAAAAAAAAAAAAAAAAAAAAAAAAAAAAAAAAAAAAAAAAAAAAAAAAAAAAAAAAAAAAAAAAAAAAAAAAAAAAAAAAAAAAAAAAAAAAAAAAAAAAAAAAAAAAAAAAAAAAAAAAAAAAAAAAAAAAAAAAAAAAAAAAAAAAAAAAAAAAAAAAAAAAAAAAAAAAAAAAAAAAAAAAAAAAAAAAAAAAAAAAAAAAAAAAAAAAAAAAAAAAAAAAAAAAAAAAAAAAAAAAAAAAAAAAAAAAAAAAAAAAAAAAAAAAAAAAAAAAAAAAAAAAAAAAAAAAAAAAAAAAAAAAAAAAAAAAAAAAAAAAAAAAAAAAAAAAAAAAAAAAAAAAAAAAAAAAAAAAAAAAAAAAAAAAAAAAAAAAAAAAAAAAAAAAAAAAAAAAAAAAAAAAAAAAAAAAAAAAAAAAAAAAAAAAAAAAAAAAAAAAAAAAAAAAAAAAAAAAAAAAAAAAAAAAAAAAAAAAAAAAAAAAAAAAAAAAAAAAAAAAAAAAAAAAAAAAAAAAAAAAAAAAAAAAAAAAAAAAAAAAAAAAAAAAAAAAAAAAAAAAAAAAAAAAAAAAAAAAAAAAAAAAAAAAAAAAAAAAAAAAAAAAAAAAAAAAAAAAAAAAAAAAAAAAAAAAAAAAAAAAAAAAAAAAAAAAAAAAAAAAAAAAAAAAAAAAAAAAAAAAAAAAAAAAAAAAAAAAAAAAAAAAAAAAAAAAAAAAAAAAAAAAAAAAAAAAAAAAAAAAAAAAAAAAAAAAAAAAAAAAAAAAAAAAAAAAAAAAAAAAAAAAAAAAAAAAAAAAAAAAAAAAAAAAAAAAAAAAAAAAAAAAAAAAAAAAAAAAAAAAAAAAAAAAAAAAAAAAAAAAAAAAAAAAAAAAAAAAAAAAAAAAAAAAAAAAAAAAAAAAAAAAAAAAAAAAAAAAAAAAAAAAAAAAAAAAAAAAAAAAAAAAAAAAAAAAAAAAAAAAAAAAAAAAAAAAAAAAAAAAAAAAAAAAAAAAAAAAAAAAAAAAAAAAAAAAAAAAAAAAAAAAAAAAAAAAAAAAAAAAAAAAAAAAAAAAAAAAAAAAAAAAAAAAAAAAAAAAAAAAAAAAAAAAAAAAAAAAAAAAAAAAAAAAAAAAAAAAAAAAAAAAAAAAAAAAAAAAAAAAAAAAAAAAAAAAAAAAAAAAAAAAAAAAAAAAAAAAAAAAAAAAAAAAAAAAAAAAAAAAAAAAAAAAAAAAAAAAAAAAAAAAAAAAAAAAAAAAAAAAAAAAAAAAAAAAAAAAAAAAAAAAAAAAAAAAAAAAAAAAAAAAAAAAAAAAAAAAAAAAAAAAAAAAAAAAAAAAAAAAAAAAAAAAAAAAAAAAAAAAAAAAAAAAAAAAAAAAAAAAAAAAAAAAAAAAAAAAAAAAAAAAAAAAAAAAAAAAAAAAAAAAAAAAAAAAAAAAAAAAAAAAAAAAAAAAAAAAAAAAAAAAAAAAAAAAAAAAAAAAAAAAAAAAAAAAAAAAAAAAAAAAAAAAAAAAAAAAAAAAAAAAAAAAAAAAAAAAAAAAAAAAAAAAAAAAAAAAAAAAAAAAAAAAAAAAAAAAAAAAAAAAAAAAAAAAAAAAAAAAAAAAAAAAAAAAAAAAAAAAAAAAAAAAAAAAAAAAAAAAAAAAAAAAAAAAAAAAAAAAAAAAAAAAAAAAAAAAAAAAAAAAAAAAAAAAAAAAAAAAAAAAAAAAAAAAAAAAAAAAAAAAAAAAAAAAAAAAAAAAAAAAAAAAAAAAAAAAAAAAAAAAAAAAAAAAAAAAAAAAAAAAAAAAAAAAAAAAAAAAAAAAAAAAAAAAAAAAAAAAAAAAAAAAAAAAAAAAAAAAAAAAAAAAAAAAAAAAAAAAAAAAAAAAAAAAAAAAAAAAAAAAAAAAAAAAAAAAAAAAAAAAAAAAAAAAAAAAAAAAAAAAAAAAAAAAAAAAAAAAAAAAAAAAAAAAAAAAAAAAAAAAAAAAAAAAAAAAAAAAAAAAAAAAAAAAAAAAAAAAAAAAAAAAAAAAAAAAAAAAAAAAAAAAAAAAAAAAAAAAAAAAAAAAAAAAAAAAAAAAAAAAAAAAAAAAAAAAAAAAAAAAAAAAAAAAAAAAAAAAAAAAAAAAAAAAAAAAAAAAAAAAAAAAAAAAAAAAAAAAAAAAAAAAAAAAAAAAAAAAAAAAAAAAAAAAAAAAAAAAAAAAAAAAAAAAAAAAAAAAAAAAAAAAAAAAAAAAAAAAAAAAAAAAAAAAAAAAAAAAAAAAAAAAAAAAAAAAAAAAAAAAAAAAAAAAAAAAAAAAAAAAAAAAAAAAAAAAAAAAAAAAAAAAAAAAAAAAAAAAAAAAAAAAAAAAAAAAAAAAAAAAAAAAAAAAAAAAAAAAAAAAAAAAAAAAAAAAAAAAAAAAAAAAAAAAAAAAAAAAAAAAAAAAAAAAAAAAAAAAAAAAAAAAAAAAAAAAAAAAAAAAAAAAAAAAAAAAAAAAAAAAAAAAAAAAAAAAAAAAAAAAAAAAAAAAAAAAAAAAAAAAAAAAAAAAAAAAAAAAAAAAAAAAAAAAAAAAAAAAAAAAAAAAAAAAAAAAAAAAAAAAAAAAAAAAAAAAAAAAAAAAAAAAAAAAAAAAAAAAAAAAAAAAAAAAAAAAAAAAAAAAAAAAAAAAAAAAAAAAAAAAAAAAAAAAAAAAAAAAAAAAAAAAAAAAAAAAAAAAAAAAAAAAAAAAAAAAAAAAAAAAAAAAAAAAAAAAAAAAAAAAAAAAAAAAAAAAAAAAAAAAAAAAAAAAAAAAAAAAAAAAAAAAAAAAAAAAAAAAAAAAAAAAAAAAAAAAAAAAAAAAAAAAAAAAAAAAAAAAAAAAAAAAAAAAAAAAAAAAAAAAAAAAAAAAAAAAAAAAAAAAAAAAAAAAAAAAAAAAAAAAAAAAAAAAAAAAAAAAAAAAAAAAAAAAAAAAAAAAAAAAAAAAAAAAAAAAAAAAAAAAAAAAAAAAAAAAAAAAAAAAAAAAAAAAAAAAAAAAAAAAAAAAAAAAAAAAAAAAAAAAAAAAAAAAAAAAAAAAAAAAAAAAAAAAAAAAAAAAAAAAAAAAAAAAAAAAAAAAAAAAAAAAAAAAAAAAAAAAAAAAAAAAAAAAAAAAAAAAAAAAAAAAAAAAAAAAAAAAAAAAAAAAAAAAAAAAAAAAAAAAAAAAAAAAAAAAAAAAAAAAAAAAAAAAAAAAAAAAAAAAAAAAAAAAAAAAAAAAAAAAAAAAAAAAAAAAAAAAAAAAAAAAAAAAAAAAAAAAAAAAAAAAAAAAAAAAAAAAAAAAAAAAAAAAAAAAAAAAAAAAAAAAAAAAAAAAAAAAAAAAAAAAAAAAAAAAAAAAAAAAAAAAAAAAAAAAAAAAAAAAAAAAAAAAAAAAAAAAAAAAAAAAAAAAAAAAAAAAAAAAAAAAAAAAAAAAAAAAAAAAAAAAAAAAAAAAAAAAAAAAAAAAAAAAAAAAAAAAAAAAAAAAAAAAAAAAAAAAAAAAAAAAAAAAAAAAAAAAAAAAAAAAAAAAAAAAAAAAAAAAAAAAAAAAAAAAAAAAAAAAAAAAAAAAAAAAAAAAAAAAAAAAAAAAAAAAAAAAAAAAAAAAAAAAAAAAAPZYQLbXrwgkQXHwjkT3hXMWKvgcaCsDgZ76E2q5Fi5I9iG5ie2qc+QloQhYXDxxlqz2pTZjgV1uu0yXUSqdiCEg7/w=</c2pa:manifest></metadata><path d="M293.3 606.9C232.4 603.0 167.8 576.5 122.7 536.7C118.2 532.7 115.5 531.0 114.4 531.4C113.3 531.8 111.5 530.8 109.0 528.3C107.0 526.2 103.5 522.9 101.2 520.9C98.2 518.4 97.0 516.6 97.0 514.7C97.0 513.0 94.9 509.6 90.5 504.4C55.6 463.4 32.5 412.9 23.8 358.6C21.8 346.2 21.5 340.9 21.5 314.0C21.5 279.4 22.7 268.7 30.0 240.5C56.5 137.3 138.3 56.0 242.1 29.6C268.3 22.9 280.8 21.5 314.0 21.5C340.0 21.5 345.2 21.8 357.9 23.8C434.9 36.2 501.3 75.7 548.0 137.1C620.4 232.1 627.3 364.3 565.3 465.9C556.9 479.6 543.8 497.5 534.1 508.4C530.8 512.2 528.0 515.8 528.0 516.5C528.0 517.1 526.2 519.3 524.0 521.3C521.8 523.2 520.0 525.3 520.0 525.8C520.0 526.4 518.5 527.4 516.6 528.0C513.4 529.0 508.4 533.9 502.1 542.0C499.9 544.9 493.4 549.0 491.0 549.0C490.4 549.0 487.3 551.0 484.2 553.3C475.1 560.3 455.5 571.9 442.0 578.3C406.3 595.3 371.0 604.5 332.3 607.0C315.0 608.1 311.4 608.1 293.3 606.9ZM354.0 582.4C382.4 578.3 408.8 570.0 434.5 557.3C454.5 547.4 477.9 532.1 481.4 526.8C482.7 524.8 482.6 522.7 481.0 509.0C478.6 489.5 478.5 491.0 481.6 486.5C484.5 482.1 484.4 478.4 481.0 468.5C475.1 451.2 465.1 438.6 440.2 416.5C424.5 402.5 419.9 399.1 411.5 394.7C400.6 389.0 397.0 385.2 397.0 379.4C397.0 376.5 396.5 375.8 393.2 374.1C391.2 373.1 387.5 371.9 385.1 371.5C382.6 371.1 379.5 369.6 377.6 368.0C374.9 365.5 374.5 364.5 374.5 360.2C374.5 356.6 375.1 354.6 376.5 353.0L378.5 350.8L375.9 348.6C370.4 343.9 369.8 339.7 373.1 331.9C374.5 328.7 375.0 326.0 374.6 324.0C373.9 320.1 375.1 317.1 380.0 310.9C384.0 305.8 390.3 293.7 393.5 285.0C397.8 273.5 395.9 241.7 390.6 234.8C389.2 232.9 387.7 229.8 387.4 227.9C387.0 226.0 386.1 223.5 385.4 222.3C384.6 221.1 383.1 217.6 382.0 214.6C379.7 208.6 372.2 198.2 366.7 193.3C364.8 191.6 360.5 189.1 357.3 187.9C351.9 185.7 350.2 185.5 332.5 185.6C310.8 185.7 304.7 186.8 294.0 192.6C277.4 201.7 258.7 218.7 253.4 229.6L250.5 235.5L250.2 260.5C249.6 301.2 252.8 320.3 262.2 333.1C264.2 335.8 264.3 338.9 262.5 347.8C261.8 350.8 262.0 351.0 264.5 351.0C275.9 351.0 280.9 363.5 272.5 370.9C270.6 372.6 269.0 374.7 269.0 375.7C268.9 379.9 265.0 385.9 259.8 389.8C254.5 393.9 252.6 395.5 247.9 400.7C246.0 402.7 242.0 404.6 233.9 407.3C219.2 412.2 194.5 424.4 184.4 431.6C180.1 434.7 173.3 440.1 169.5 443.5C158.9 452.9 139.4 478.7 133.7 490.7C132.4 493.4 130.0 497.7 128.2 500.4C126.4 503.2 125.0 506.1 125.0 507.1C125.0 509.4 136.7 520.2 150.9 530.9C209.0 574.8 281.1 593.1 354.0 582.4ZM109.1 486.3C109.7 484.7 109.9 482.4 109.7 481.0C108.2 473.3 113.9 457.5 122.7 445.2C129.5 435.6 144.6 420.3 156.2 411.3C176.2 395.8 219.6 366.8 232.9 360.0C236.3 358.3 239.3 356.3 239.6 355.6C239.9 354.9 239.2 351.1 238.1 347.1C236.5 341.5 235.1 338.8 231.2 334.2C222.0 323.6 219.4 318.2 208.8 287.0C197.6 254.1 195.9 240.3 200.0 215.5C202.3 200.9 205.7 190.4 211.6 179.0C224.0 154.9 241.0 143.4 267.6 141.1C273.9 140.5 281.9 138.9 289.5 136.6C324.3 126.3 341.1 124.7 353.7 130.6C355.6 131.6 362.7 137.5 369.4 143.8C376.0 150.0 385.6 158.3 390.7 162.1C402.1 170.6 407.6 177.4 414.5 191.5C430.3 223.7 432.7 249.7 423.0 281.5C419.4 293.2 402.9 325.8 391.3 344.2C390.1 346.3 389.0 348.3 389.0 348.7C389.0 349.2 392.5 350.7 396.8 352.1C401.0 353.5 405.9 355.2 407.5 355.8C409.1 356.4 413.0 357.4 416.0 358.1C424.9 360.0 429.0 362.0 438.0 368.9C442.7 372.5 451.0 378.4 456.5 382.0C470.0 391.0 480.0 399.2 489.2 408.8C496.0 416.0 497.8 418.7 504.5 432.2C508.6 440.6 514.0 451.3 516.5 455.9C520.3 463.2 524.1 473.5 525.2 479.4C525.8 483.3 527.8 481.8 534.6 472.3C560.2 436.7 576.8 394.8 583.0 350.5C586.9 322.9 585.6 284.6 579.9 258.5C552.2 131.7 442.7 42.9 314.0 42.9C254.0 42.9 198.2 61.7 149.7 98.2C134.0 110.0 110.1 133.9 98.4 149.5C61.5 198.4 42.9 253.4 42.8 313.5C42.8 364.8 55.6 411.0 82.1 455.1C90.1 468.2 105.1 488.9 106.8 488.9C107.5 489.0 108.5 487.8 109.1 486.3Z" fill="#F2EDE3" fill-rule="evenodd"/></svg>